# xmcd
#
# Track frame offsets:
#  150
#  12597
#  29438
#  45224
#  60358
#  75909
#  97186
#  111381
#  124205
#  141040
#  161340
#
# Disc length: 2502 seconds
#
# Revision: 0
# Processed by: cddbd v1.5.1PL2 Copyright (c) Steve Scherf et al.
# Submitted via: Collectorz.com_Music_Collector 6.11
#
DISCID=8509c40b
DTITLE=Dave Roussy - On S'en Reparlera...
DYEAR=2006
DGENRE=Québecois
TTITLE0=On S'en Reparlera
TTITLE1=Je Tiens Le Coup
TTITLE2=Ces Yeux-Là
TTITLE3=Je Serai Le Même
TTITLE4=D'une Minute À L'autre
TTITLE5=Et Puis Je Sais
TTITLE6=Ça Ce Joue à Deux
TTITLE7=Cannibale
TTITLE8=Un Dernier Verre De Chagrin
TTITLE9=Contre Vents Et Marées
TTITLE10=L'homme Au Tambour
EXTD=
EXTT0=
EXTT1=
EXTT2=
EXTT3=
EXTT4=
EXTT5=
EXTT6=
EXTT7=
EXTT8=
EXTT9=
EXTT10=
PLAYORDER=
